<mxfile host="app.diagrams.net" agent="Mozilla/5.0 (Windows NT 10.0; Win64; x64) AppleWebKit/537.36 (KHTML, like Gecko) Chrome/103.0.0.0 Safari/537.36" version="27.0.9">
  <diagram name="第 1 页" id="YQLcGAZkTCQo_GYeqKLx">
    <mxGraphModel dx="1426" dy="769" grid="1" gridSize="10" guides="1" tooltips="1" connect="1" arrows="1" fold="1" page="1" pageScale="1" pageWidth="827" pageHeight="1169" math="0" shadow="0">
      <root>
        <mxCell id="0" />
        <mxCell id="1" parent="0" />
        <mxCell id="2a_4hEkA-0nOP-3N02eU-1" value="" style="rounded=1;whiteSpace=wrap;html=1;fillColor=#dae8fc;strokeColor=#6c8ebf;" vertex="1" parent="1">
          <mxGeometry x="270" y="180" width="491.67" height="100" as="geometry" />
        </mxCell>
        <mxCell id="2a_4hEkA-0nOP-3N02eU-3" value="作业1" style="ellipse;whiteSpace=wrap;html=1;fillColor=#f8cecc;strokeColor=#b85450;" vertex="1" parent="1">
          <mxGeometry x="300" y="180" width="90" height="60" as="geometry" />
        </mxCell>
        <mxCell id="2a_4hEkA-0nOP-3N02eU-6" value="作业2" style="ellipse;whiteSpace=wrap;html=1;fillColor=#f8cecc;strokeColor=#b85450;" vertex="1" parent="1">
          <mxGeometry x="390" y="190" width="90" height="60" as="geometry" />
        </mxCell>
        <mxCell id="2a_4hEkA-0nOP-3N02eU-7" value="作业3" style="ellipse;whiteSpace=wrap;html=1;fillColor=#f8cecc;strokeColor=#b85450;" vertex="1" parent="1">
          <mxGeometry x="460" y="220" width="90" height="60" as="geometry" />
        </mxCell>
        <mxCell id="2a_4hEkA-0nOP-3N02eU-8" value="作业4" style="ellipse;whiteSpace=wrap;html=1;fillColor=#f8cecc;strokeColor=#b85450;" vertex="1" parent="1">
          <mxGeometry x="630" y="200" width="90" height="60" as="geometry" />
        </mxCell>
        <mxCell id="2a_4hEkA-0nOP-3N02eU-11" style="edgeStyle=orthogonalEdgeStyle;rounded=0;orthogonalLoop=1;jettySize=auto;html=1;entryX=0;entryY=0.5;entryDx=0;entryDy=0;" edge="1" parent="1" source="2a_4hEkA-0nOP-3N02eU-10" target="2a_4hEkA-0nOP-3N02eU-1">
          <mxGeometry relative="1" as="geometry" />
        </mxCell>
        <mxCell id="2a_4hEkA-0nOP-3N02eU-10" value="yarn资源分配置" style="whiteSpace=wrap;html=1;aspect=fixed;" vertex="1" parent="1">
          <mxGeometry x="110" y="290" width="80" height="80" as="geometry" />
        </mxCell>
        <mxCell id="2a_4hEkA-0nOP-3N02eU-12" value="" style="rounded=1;whiteSpace=wrap;html=1;fillColor=#dae8fc;strokeColor=#6c8ebf;" vertex="1" parent="1">
          <mxGeometry x="270" y="370" width="491.67" height="100" as="geometry" />
        </mxCell>
        <mxCell id="2a_4hEkA-0nOP-3N02eU-13" value="作业1" style="ellipse;whiteSpace=wrap;html=1;fillColor=#f8cecc;strokeColor=#b85450;" vertex="1" parent="1">
          <mxGeometry x="300" y="370" width="90" height="60" as="geometry" />
        </mxCell>
        <mxCell id="2a_4hEkA-0nOP-3N02eU-14" value="作业2" style="ellipse;whiteSpace=wrap;html=1;fillColor=#f8cecc;strokeColor=#b85450;" vertex="1" parent="1">
          <mxGeometry x="390" y="380" width="90" height="60" as="geometry" />
        </mxCell>
        <mxCell id="2a_4hEkA-0nOP-3N02eU-15" value="作业3" style="ellipse;whiteSpace=wrap;html=1;fillColor=#f8cecc;strokeColor=#b85450;" vertex="1" parent="1">
          <mxGeometry x="460" y="410" width="90" height="60" as="geometry" />
        </mxCell>
        <mxCell id="2a_4hEkA-0nOP-3N02eU-16" value="作业4" style="ellipse;whiteSpace=wrap;html=1;fillColor=#f8cecc;strokeColor=#b85450;" vertex="1" parent="1">
          <mxGeometry x="630" y="390" width="90" height="60" as="geometry" />
        </mxCell>
        <mxCell id="2a_4hEkA-0nOP-3N02eU-17" value="client" style="ellipse;whiteSpace=wrap;html=1;" vertex="1" parent="1">
          <mxGeometry x="2" y="240" width="75" height="50" as="geometry" />
        </mxCell>
        <mxCell id="2a_4hEkA-0nOP-3N02eU-18" value="client" style="ellipse;whiteSpace=wrap;html=1;" vertex="1" parent="1">
          <mxGeometry x="2" y="380" width="75" height="50" as="geometry" />
        </mxCell>
        <mxCell id="2a_4hEkA-0nOP-3N02eU-19" value="作业8" style="ellipse;whiteSpace=wrap;html=1;fillColor=#d5e8d4;strokeColor=#82b366;" vertex="1" parent="1">
          <mxGeometry x="280" y="330" width="60" height="40" as="geometry" />
        </mxCell>
        <mxCell id="2a_4hEkA-0nOP-3N02eU-20" value="作业9" style="ellipse;whiteSpace=wrap;html=1;fillColor=#d5e8d4;strokeColor=#82b366;" vertex="1" parent="1">
          <mxGeometry x="340" y="330" width="60" height="40" as="geometry" />
        </mxCell>
        <mxCell id="2a_4hEkA-0nOP-3N02eU-21" value="作业..." style="ellipse;whiteSpace=wrap;html=1;fillColor=#d5e8d4;strokeColor=#82b366;" vertex="1" parent="1">
          <mxGeometry x="400" y="330" width="60" height="40" as="geometry" />
        </mxCell>
        <mxCell id="2a_4hEkA-0nOP-3N02eU-22" value="作业5" style="ellipse;whiteSpace=wrap;html=1;fillColor=#d5e8d4;strokeColor=#82b366;" vertex="1" parent="1">
          <mxGeometry x="530" y="370" width="60" height="40" as="geometry" />
        </mxCell>
        <mxCell id="2a_4hEkA-0nOP-3N02eU-23" value="作业6" style="ellipse;whiteSpace=wrap;html=1;fillColor=#d5e8d4;strokeColor=#82b366;" vertex="1" parent="1">
          <mxGeometry x="560" y="390" width="60" height="40" as="geometry" />
        </mxCell>
        <mxCell id="2a_4hEkA-0nOP-3N02eU-24" value="作业7" style="ellipse;whiteSpace=wrap;html=1;fillColor=#d5e8d4;strokeColor=#82b366;" vertex="1" parent="1">
          <mxGeometry x="560" y="420" width="70" height="40" as="geometry" />
        </mxCell>
      </root>
    </mxGraphModel>
  </diagram>
</mxfile>
